<mxfile host="app.diagrams.net" agent="Mozilla/5.0 (X11; Ubuntu; Linux x86_64; rv:135.0) Gecko/20100101 Firefox/135.0" version="26.0.16">
  <diagram name="Page-1" id="LzTYZ5b2uoXeEjNI6U1L">
    <mxGraphModel dx="819" dy="449" grid="1" gridSize="10" guides="1" tooltips="1" connect="1" arrows="1" fold="1" page="1" pageScale="1" pageWidth="850" pageHeight="1100" math="0" shadow="0">
      <root>
        <mxCell id="0" />
        <mxCell id="1" parent="0" />
        <mxCell id="Sc7mpuJmHme3OwhXEk4d-1" value="" style="image;sketch=0;aspect=fixed;html=1;points=[];align=center;fontSize=12;image=img/lib/mscae/Device_Provisioning_Services.svg;" vertex="1" parent="1">
          <mxGeometry x="120" y="360" width="48" height="50" as="geometry" />
        </mxCell>
        <mxCell id="Sc7mpuJmHme3OwhXEk4d-2" value="" style="image;sketch=0;aspect=fixed;html=1;points=[];align=center;fontSize=12;image=img/lib/mscae/Device_Provisioning_Services.svg;" vertex="1" parent="1">
          <mxGeometry x="240" y="360" width="48" height="50" as="geometry" />
        </mxCell>
        <mxCell id="Sc7mpuJmHme3OwhXEk4d-3" value="" style="image;sketch=0;aspect=fixed;html=1;points=[];align=center;fontSize=12;image=img/lib/mscae/Device_Provisioning_Services.svg;" vertex="1" parent="1">
          <mxGeometry x="360" y="360" width="48" height="50" as="geometry" />
        </mxCell>
        <mxCell id="Sc7mpuJmHme3OwhXEk4d-4" value="" style="image;sketch=0;aspect=fixed;html=1;points=[];align=center;fontSize=12;image=img/lib/mscae/Device_Provisioning_Services.svg;" vertex="1" parent="1">
          <mxGeometry x="480" y="360" width="48" height="50" as="geometry" />
        </mxCell>
        <mxCell id="Sc7mpuJmHme3OwhXEk4d-5" value="Kitchen" style="text;html=1;align=center;verticalAlign=middle;whiteSpace=wrap;rounded=0;" vertex="1" parent="1">
          <mxGeometry x="40" y="490" width="60" height="30" as="geometry" />
        </mxCell>
        <mxCell id="Sc7mpuJmHme3OwhXEk4d-6" value="Dining Room" style="text;html=1;align=center;verticalAlign=middle;whiteSpace=wrap;rounded=0;" vertex="1" parent="1">
          <mxGeometry x="222" y="490" width="84" height="30" as="geometry" />
        </mxCell>
        <mxCell id="Sc7mpuJmHme3OwhXEk4d-7" value="Hallway" style="text;html=1;align=center;verticalAlign=middle;whiteSpace=wrap;rounded=0;" vertex="1" parent="1">
          <mxGeometry x="342" y="490" width="84" height="30" as="geometry" />
        </mxCell>
        <mxCell id="Sc7mpuJmHme3OwhXEk4d-8" value="Bedroom" style="text;html=1;align=center;verticalAlign=middle;whiteSpace=wrap;rounded=0;" vertex="1" parent="1">
          <mxGeometry x="528" y="490" width="84" height="30" as="geometry" />
        </mxCell>
        <mxCell id="Sc7mpuJmHme3OwhXEk4d-9" value="" style="image;sketch=0;aspect=fixed;html=1;points=[];align=center;fontSize=12;image=img/lib/mscae/Device_Provisioning_Services.svg;" vertex="1" parent="1">
          <mxGeometry x="600" y="360" width="48" height="50" as="geometry" />
        </mxCell>
        <mxCell id="Sc7mpuJmHme3OwhXEk4d-10" value="" style="image;sketch=0;aspect=fixed;html=1;points=[];align=center;fontSize=12;image=img/lib/mscae/Device_Provisioning_Services.svg;" vertex="1" parent="1">
          <mxGeometry x="720" y="360" width="48" height="50" as="geometry" />
        </mxCell>
        <mxCell id="Sc7mpuJmHme3OwhXEk4d-11" value="Garden" style="text;html=1;align=center;verticalAlign=middle;whiteSpace=wrap;rounded=0;" vertex="1" parent="1">
          <mxGeometry x="702" y="490" width="84" height="30" as="geometry" />
        </mxCell>
        <mxCell id="Sc7mpuJmHme3OwhXEk4d-12" value="" style="endArrow=classic;html=1;rounded=0;entryX=0.5;entryY=0;entryDx=0;entryDy=0;exitX=0.5;exitY=1.08;exitDx=0;exitDy=0;exitPerimeter=0;" edge="1" parent="1" source="Sc7mpuJmHme3OwhXEk4d-1" target="Sc7mpuJmHme3OwhXEk4d-5">
          <mxGeometry width="50" height="50" relative="1" as="geometry">
            <mxPoint x="400" y="430" as="sourcePoint" />
            <mxPoint x="450" y="380" as="targetPoint" />
          </mxGeometry>
        </mxCell>
        <mxCell id="Sc7mpuJmHme3OwhXEk4d-13" value="" style="endArrow=classic;html=1;rounded=0;entryX=0.5;entryY=0;entryDx=0;entryDy=0;exitX=0.458;exitY=1;exitDx=0;exitDy=0;exitPerimeter=0;" edge="1" parent="1" source="Sc7mpuJmHme3OwhXEk4d-2" target="Sc7mpuJmHme3OwhXEk4d-6">
          <mxGeometry width="50" height="50" relative="1" as="geometry">
            <mxPoint x="400" y="430" as="sourcePoint" />
            <mxPoint x="450" y="380" as="targetPoint" />
          </mxGeometry>
        </mxCell>
        <mxCell id="Sc7mpuJmHme3OwhXEk4d-14" value="" style="endArrow=classic;html=1;rounded=0;entryX=0.5;entryY=0;entryDx=0;entryDy=0;exitX=0.458;exitY=0.98;exitDx=0;exitDy=0;exitPerimeter=0;" edge="1" parent="1" source="Sc7mpuJmHme3OwhXEk4d-3" target="Sc7mpuJmHme3OwhXEk4d-7">
          <mxGeometry width="50" height="50" relative="1" as="geometry">
            <mxPoint x="400" y="430" as="sourcePoint" />
            <mxPoint x="450" y="380" as="targetPoint" />
          </mxGeometry>
        </mxCell>
        <mxCell id="Sc7mpuJmHme3OwhXEk4d-15" value="" style="endArrow=classic;html=1;rounded=0;entryX=0.5;entryY=0;entryDx=0;entryDy=0;exitX=0.521;exitY=1.04;exitDx=0;exitDy=0;exitPerimeter=0;" edge="1" parent="1" source="Sc7mpuJmHme3OwhXEk4d-4" target="Sc7mpuJmHme3OwhXEk4d-8">
          <mxGeometry width="50" height="50" relative="1" as="geometry">
            <mxPoint x="400" y="430" as="sourcePoint" />
            <mxPoint x="450" y="380" as="targetPoint" />
          </mxGeometry>
        </mxCell>
        <mxCell id="Sc7mpuJmHme3OwhXEk4d-16" value="" style="endArrow=classic;html=1;rounded=0;entryX=0.5;entryY=0;entryDx=0;entryDy=0;exitX=0.542;exitY=1.06;exitDx=0;exitDy=0;exitPerimeter=0;" edge="1" parent="1" source="Sc7mpuJmHme3OwhXEk4d-9" target="Sc7mpuJmHme3OwhXEk4d-11">
          <mxGeometry width="50" height="50" relative="1" as="geometry">
            <mxPoint x="400" y="430" as="sourcePoint" />
            <mxPoint x="450" y="380" as="targetPoint" />
          </mxGeometry>
        </mxCell>
        <mxCell id="Sc7mpuJmHme3OwhXEk4d-17" value="" style="endArrow=classic;html=1;rounded=0;entryX=0.5;entryY=0;entryDx=0;entryDy=0;exitX=0.479;exitY=1.04;exitDx=0;exitDy=0;exitPerimeter=0;" edge="1" parent="1" source="Sc7mpuJmHme3OwhXEk4d-10" target="Sc7mpuJmHme3OwhXEk4d-11">
          <mxGeometry width="50" height="50" relative="1" as="geometry">
            <mxPoint x="400" y="430" as="sourcePoint" />
            <mxPoint x="450" y="380" as="targetPoint" />
          </mxGeometry>
        </mxCell>
        <mxCell id="Sc7mpuJmHme3OwhXEk4d-21" style="edgeStyle=orthogonalEdgeStyle;rounded=0;orthogonalLoop=1;jettySize=auto;html=1;entryX=0.5;entryY=1;entryDx=0;entryDy=0;" edge="1" parent="1" source="Sc7mpuJmHme3OwhXEk4d-18" target="Sc7mpuJmHme3OwhXEk4d-5">
          <mxGeometry relative="1" as="geometry">
            <Array as="points">
              <mxPoint x="29" y="570" />
              <mxPoint x="70" y="570" />
            </Array>
          </mxGeometry>
        </mxCell>
        <mxCell id="Sc7mpuJmHme3OwhXEk4d-18" value="" style="html=1;verticalLabelPosition=bottom;align=center;labelBackgroundColor=#ffffff;verticalAlign=top;strokeWidth=2;strokeColor=#0080F0;shadow=0;dashed=0;shape=mxgraph.ios7.icons.lightbulb;" vertex="1" parent="1">
          <mxGeometry x="17.19999999999999" y="610" width="22.8" height="29.7" as="geometry" />
        </mxCell>
        <mxCell id="Sc7mpuJmHme3OwhXEk4d-22" style="edgeStyle=orthogonalEdgeStyle;rounded=0;orthogonalLoop=1;jettySize=auto;html=1;entryX=0.5;entryY=1;entryDx=0;entryDy=0;" edge="1" parent="1" source="Sc7mpuJmHme3OwhXEk4d-19" target="Sc7mpuJmHme3OwhXEk4d-5">
          <mxGeometry relative="1" as="geometry">
            <Array as="points">
              <mxPoint x="89" y="570" />
              <mxPoint x="70" y="570" />
            </Array>
          </mxGeometry>
        </mxCell>
        <mxCell id="Sc7mpuJmHme3OwhXEk4d-19" value="" style="html=1;verticalLabelPosition=bottom;align=center;labelBackgroundColor=#ffffff;verticalAlign=top;strokeWidth=2;strokeColor=#0080F0;shadow=0;dashed=0;shape=mxgraph.ios7.icons.lightbulb;" vertex="1" parent="1">
          <mxGeometry x="77.19999999999999" y="610" width="22.8" height="29.7" as="geometry" />
        </mxCell>
        <mxCell id="Sc7mpuJmHme3OwhXEk4d-23" style="edgeStyle=orthogonalEdgeStyle;rounded=0;orthogonalLoop=1;jettySize=auto;html=1;entryX=0.5;entryY=1;entryDx=0;entryDy=0;" edge="1" parent="1" source="Sc7mpuJmHme3OwhXEk4d-20" target="Sc7mpuJmHme3OwhXEk4d-5">
          <mxGeometry relative="1" as="geometry">
            <Array as="points">
              <mxPoint x="157" y="570" />
              <mxPoint x="70" y="570" />
            </Array>
          </mxGeometry>
        </mxCell>
        <mxCell id="Sc7mpuJmHme3OwhXEk4d-24" style="edgeStyle=orthogonalEdgeStyle;rounded=0;orthogonalLoop=1;jettySize=auto;html=1;" edge="1" parent="1" source="Sc7mpuJmHme3OwhXEk4d-20" target="Sc7mpuJmHme3OwhXEk4d-6">
          <mxGeometry relative="1" as="geometry">
            <Array as="points">
              <mxPoint x="157" y="570" />
              <mxPoint x="264" y="570" />
            </Array>
          </mxGeometry>
        </mxCell>
        <mxCell id="Sc7mpuJmHme3OwhXEk4d-20" value="" style="html=1;verticalLabelPosition=bottom;align=center;labelBackgroundColor=#ffffff;verticalAlign=top;strokeWidth=2;strokeColor=#0080F0;shadow=0;dashed=0;shape=mxgraph.ios7.icons.lightbulb;" vertex="1" parent="1">
          <mxGeometry x="145.2" y="610" width="22.8" height="29.7" as="geometry" />
        </mxCell>
        <mxCell id="Sc7mpuJmHme3OwhXEk4d-27" style="edgeStyle=orthogonalEdgeStyle;rounded=0;orthogonalLoop=1;jettySize=auto;html=1;" edge="1" parent="1" source="Sc7mpuJmHme3OwhXEk4d-25" target="Sc7mpuJmHme3OwhXEk4d-7">
          <mxGeometry relative="1" as="geometry">
            <Array as="points">
              <mxPoint x="326" y="580" />
              <mxPoint x="384" y="580" />
            </Array>
          </mxGeometry>
        </mxCell>
        <mxCell id="Sc7mpuJmHme3OwhXEk4d-25" value="" style="html=1;verticalLabelPosition=bottom;align=center;labelBackgroundColor=#ffffff;verticalAlign=top;strokeWidth=2;strokeColor=#0080F0;shadow=0;dashed=0;shape=mxgraph.ios7.icons.lightbulb;" vertex="1" parent="1">
          <mxGeometry x="314.4" y="610" width="22.8" height="29.7" as="geometry" />
        </mxCell>
        <mxCell id="Sc7mpuJmHme3OwhXEk4d-28" style="edgeStyle=orthogonalEdgeStyle;rounded=0;orthogonalLoop=1;jettySize=auto;html=1;entryX=0.5;entryY=1;entryDx=0;entryDy=0;" edge="1" parent="1" source="Sc7mpuJmHme3OwhXEk4d-26" target="Sc7mpuJmHme3OwhXEk4d-7">
          <mxGeometry relative="1" as="geometry">
            <Array as="points">
              <mxPoint x="397" y="580" />
              <mxPoint x="384" y="580" />
            </Array>
          </mxGeometry>
        </mxCell>
        <mxCell id="Sc7mpuJmHme3OwhXEk4d-26" value="" style="html=1;verticalLabelPosition=bottom;align=center;labelBackgroundColor=#ffffff;verticalAlign=top;strokeWidth=2;strokeColor=#0080F0;shadow=0;dashed=0;shape=mxgraph.ios7.icons.lightbulb;" vertex="1" parent="1">
          <mxGeometry x="385.2" y="610" width="22.8" height="29.7" as="geometry" />
        </mxCell>
        <mxCell id="Sc7mpuJmHme3OwhXEk4d-29" value="&lt;b&gt;Publish&lt;/b&gt;" style="text;html=1;align=center;verticalAlign=middle;whiteSpace=wrap;rounded=0;" vertex="1" parent="1">
          <mxGeometry x="385.2" y="430" width="60" height="30" as="geometry" />
        </mxCell>
        <mxCell id="Sc7mpuJmHme3OwhXEk4d-30" value="&lt;b&gt;Subscribe&lt;/b&gt;" style="text;html=1;align=center;verticalAlign=middle;whiteSpace=wrap;rounded=0;" vertex="1" parent="1">
          <mxGeometry x="395" y="535" width="60" height="30" as="geometry" />
        </mxCell>
        <mxCell id="Sc7mpuJmHme3OwhXEk4d-32" style="edgeStyle=orthogonalEdgeStyle;rounded=0;orthogonalLoop=1;jettySize=auto;html=1;entryX=0.5;entryY=1;entryDx=0;entryDy=0;" edge="1" parent="1" source="Sc7mpuJmHme3OwhXEk4d-31" target="Sc7mpuJmHme3OwhXEk4d-8">
          <mxGeometry relative="1" as="geometry" />
        </mxCell>
        <mxCell id="Sc7mpuJmHme3OwhXEk4d-31" value="" style="html=1;verticalLabelPosition=bottom;align=center;labelBackgroundColor=#ffffff;verticalAlign=top;strokeWidth=2;strokeColor=#0080F0;shadow=0;dashed=0;shape=mxgraph.ios7.icons.lightbulb;" vertex="1" parent="1">
          <mxGeometry x="540" y="610" width="22.8" height="29.7" as="geometry" />
        </mxCell>
        <mxCell id="Sc7mpuJmHme3OwhXEk4d-36" style="edgeStyle=orthogonalEdgeStyle;rounded=0;orthogonalLoop=1;jettySize=auto;html=1;entryX=0.5;entryY=1;entryDx=0;entryDy=0;" edge="1" parent="1" source="Sc7mpuJmHme3OwhXEk4d-33" target="Sc7mpuJmHme3OwhXEk4d-11">
          <mxGeometry relative="1" as="geometry">
            <Array as="points">
              <mxPoint x="671" y="570" />
              <mxPoint x="744" y="570" />
            </Array>
          </mxGeometry>
        </mxCell>
        <mxCell id="Sc7mpuJmHme3OwhXEk4d-33" value="" style="html=1;verticalLabelPosition=bottom;align=center;labelBackgroundColor=#ffffff;verticalAlign=top;strokeWidth=2;strokeColor=#0080F0;shadow=0;dashed=0;shape=mxgraph.ios7.icons.lightbulb;" vertex="1" parent="1">
          <mxGeometry x="660" y="610" width="22.8" height="29.7" as="geometry" />
        </mxCell>
        <mxCell id="Sc7mpuJmHme3OwhXEk4d-37" style="edgeStyle=orthogonalEdgeStyle;rounded=0;orthogonalLoop=1;jettySize=auto;html=1;entryX=0.5;entryY=1;entryDx=0;entryDy=0;" edge="1" parent="1" source="Sc7mpuJmHme3OwhXEk4d-34" target="Sc7mpuJmHme3OwhXEk4d-11">
          <mxGeometry relative="1" as="geometry">
            <Array as="points">
              <mxPoint x="731" y="570" />
              <mxPoint x="744" y="570" />
            </Array>
          </mxGeometry>
        </mxCell>
        <mxCell id="Sc7mpuJmHme3OwhXEk4d-34" value="" style="html=1;verticalLabelPosition=bottom;align=center;labelBackgroundColor=#ffffff;verticalAlign=top;strokeWidth=2;strokeColor=#0080F0;shadow=0;dashed=0;shape=mxgraph.ios7.icons.lightbulb;" vertex="1" parent="1">
          <mxGeometry x="720" y="610" width="22.8" height="29.7" as="geometry" />
        </mxCell>
        <mxCell id="Sc7mpuJmHme3OwhXEk4d-38" style="edgeStyle=orthogonalEdgeStyle;rounded=0;orthogonalLoop=1;jettySize=auto;html=1;entryX=0.5;entryY=1;entryDx=0;entryDy=0;" edge="1" parent="1" source="Sc7mpuJmHme3OwhXEk4d-35" target="Sc7mpuJmHme3OwhXEk4d-11">
          <mxGeometry relative="1" as="geometry">
            <Array as="points">
              <mxPoint x="791" y="570" />
              <mxPoint x="744" y="570" />
            </Array>
          </mxGeometry>
        </mxCell>
        <mxCell id="Sc7mpuJmHme3OwhXEk4d-35" value="" style="html=1;verticalLabelPosition=bottom;align=center;labelBackgroundColor=#ffffff;verticalAlign=top;strokeWidth=2;strokeColor=#0080F0;shadow=0;dashed=0;shape=mxgraph.ios7.icons.lightbulb;" vertex="1" parent="1">
          <mxGeometry x="780" y="610" width="22.8" height="29.7" as="geometry" />
        </mxCell>
      </root>
    </mxGraphModel>
  </diagram>
</mxfile>
